<?xml version="1.0" encoding="UTF-8" standalone="no"?>
<svg width="418px" height="418px" viewBox="0 0 418 418" version="1.1" xmlns="http://www.w3.org/2000/svg" xmlns:xlink="http://www.w3.org/1999/xlink">
    <!-- Generator: Sketch 3.7.2 (28276) - http://www.bohemiancoding.com/sketch -->
    <title>Fill 64</title>
    <desc>Created with Sketch.</desc>
    <defs></defs>
    <g id="Page-1" stroke="none" stroke-width="1" fill="none" fill-rule="evenodd">
        <g id="Page1-Copy" transform="translate(-721.000000, -606.000000)" fill="#FCFBF3">
            <path d="M1086.75,945.625 C1086.75,960.046 1075.046,971.75 1060.625,971.75 L982.25,971.75 L982.25,1024 L1086.75,1024 C1115.60506,1024 1139,1000.60506 1139,971.75 L1139,867.25 L1086.75,867.25 L1086.75,945.625 L1086.75,945.625 Z M1086.75,606 L982.25,606 L982.25,658.25 L1060.625,658.25 C1075.046,658.25 1086.75,669.954 1086.75,684.375 L1086.75,762.75 L1139,762.75 L1139,658.25 C1139,629.394937 1115.60506,606 1086.75,606 L1086.75,606 Z M721,658.25 L721,762.75 L773.25,762.75 L773.25,684.375 C773.25,669.954 784.954,658.25 799.375,658.25 L877.75,658.25 L877.75,606 L773.25,606 C744.394938,606 721,629.394937 721,658.25 L721,658.25 Z M773.25,945.625 L773.25,867.25 L721,867.25 L721,971.75 C721,1000.60506 744.394938,1024 773.25,1024 L877.75,1024 L877.75,971.75 L799.375,971.75 C784.954,971.75 773.25,960.046 773.25,945.625 L773.25,945.625 Z" id="Fill-64"></path>
        </g>
    </g>
</svg>